<svg xmlns="http://www.w3.org/2000/svg" enable-background="new 0 0 66 66" viewBox="0 0 66 66"><path d="M51.1699,13.0059c-1.6883-5.0191-5.7877-8.7791-10.8305-10.3958c-3.3832-1.0848-7.6751-3.0042-10.3605-0.007
		c0.829,2.3106,0.1656,3.8439,0.0825,5.4531c-0.2345,1.9875,1.3753,3.6106,1.5436,5.8398c0.0822,0.8629,0.1467,1.8775,1.5911,2.2859
		c0.0055,0.0017,0.0114,0.0034,0.0168,0.0049c7.3819,2.1183,14.0574,8.136,16.2623,16.6219
		c-1.6434,5.7894-0.7541,14.0531-11.22,22.463c-0.9602,0.7716-2.1692,1.1611-3.4014,1.1611
		c-2.7685-0.174-5.0415,0.5606-7.1917-1.1724c-2.3728-1.9095-4.7955-4.4244-6.4359-7.0066
		c0.0537-0.8357,0.0255-0.4856,1.4213-16.9537c0.6023-0.0457,1.2746-0.0748,1.9974-0.0597c-1.1007,0.98-0.4048,2.787,1.0579,2.787
		c1.3077,0,2.0691-1.4952,1.2732-2.5533c0.6481,0.1165,1.3136,0.274,1.9973,0.5124c-1.6442-1.4915-3.276-2.2826-6.2853-1.162
		c0.0647-0.7618,0.1288-1.5237,0.1935-2.2857c1.931-0.9655,5.2059,0.7812,7.8522,0.1306c-2.4326-0.1203-5.6359-1.7779-7.7915-0.8474
		c0.2473-2.923,0.3721-5.9017,1.6933-8.3091c2.2096-4.0253,6.3872-2.3972,6.2132-5.5612c-0.0584-2.1492-1.6051-3.619-1.2914-5.934
		c0.1604-1.6618,0.8432-3.0538,0.1822-5.2526C20.8227,2.2808,16.1527,7.3628,12.987,15.1049
		C8.1818,26.8598,8.76,35.5516,9.1063,43.5968c0.0257,0.6015,0.0573,1.204,0.0977,1.8061
		c0.6207,9.3073,5.5677,18.9403,15.0371,19.5466c2.1039,0.1345,4.2608-0.0153,6.3638-0.1743
		c-2.6098-2.0525-8.5701-7.6179-9.3026-12.9577c1.3492,1.6487,3.4312,3.6812,5.0906,5.0164
		c1.2959,1.0456,2.9596,1.6212,4.6844,1.6212c2.5137-0.2005,5.5738,0.6988,8.4456-1.6074
		c7.2353-5.8187,9.3626-11.0875,10.8039-18.1197c0.2911,7.9275-2.3818,16.2305-7.4786,22.8542
		c5.8915,1.4841,12.266-2.6139,13.8686-11.5152C58.396,40.7476,54.4448,22.7372,51.1699,13.0059z"/><path d="M33.4933 44.2546c-.3306.2256-.7309.215-1.0475 0-.2728-.1752-.6299-.7758-1.2712-.7904-.6392-.041-1.3362.3732-1.6489-.5583-.1584-.4092-.0661-.896.0015-1.3605-.6491 1.6328.0429 2.3634.9261 2.3617 1.4141-.0145.8566.1345 1.7116.7538.4954.3509 1.1155.3496 1.6093-.0005.8614-.6234.2938-.7702 1.7115-.7543.6274.0012 1.0326-.3578 1.1656-.9331.0948-.5183-.0667-.9912-.2394-1.4276.0676.4645.1599.9513.0019 1.361-.1431.426-.4902.6837-.9182.6131-.2167-.0168-.4542-.0725-.7316-.0548C34.0892 43.4813 33.8121 44.0514 33.4933 44.2546zM44.7558 31.4324c-3.4025-1.2999-5.0807-1.9033-7.7901.5541.6838-.2384 1.3492-.3959 1.9969-.5124-.796 1.0608-.0322 2.5533 1.2737 2.5533 1.4591 0 2.1597-1.8057 1.0574-2.787C42.6755 31.2115 43.8706 31.3524 44.7558 31.4324zM35.2053 28.6694c2.7808.6837 6.1076-1.2458 8.1174-.0013.736.4695 1.3398 1.2073 1.9445 1.9345C42.9655 25.2542 39.1594 28.4738 35.2053 28.6694zM32.9651 48.2799c-1.4118-.6226-1.1336-.5418-4.831 1.0348 3.4007.4218 6.2467.3177 9.6487-.0065C36.9134 48.9343 34.3778 47.6729 32.9651 48.2799z"/><path d="M32.9651,50.866c1.7752,0.644,3.0592-0.6679,4.4948-1.2201c-3.0061,0.5486-5.9121,0.629-8.9195,0.0286
		C29.9508,50.2413,31.2284,51.4996,32.9651,50.866z"/></svg>