<svg xmlns="http://www.w3.org/2000/svg" enable-background="new 0 0 66 66" viewBox="0 0 66 66"><path d="M54.7195,15.5854l0.0103-0.0299c0.0402-1.8969-0.7929-3.7235-2.2483-5.0179c-3.7232-3.3219-7.6772-6.3829-12.3541-8.0791
		c-11.2529-4.069-23.726,0.8788-23.1523,10.3371c0.0505,0.7927,0.1808,0.5518-0.4915,0.873
		c-5.8907,2.8056-5.4171,9.1249-3.515,15.3844c-3.1092,3.7459-1.7533,11.2958,2.4458,12.7366
		c0.0228,0.1006,0.866,3.6982,0.8943,3.807c1.0168,4.9754,3.6235,9.5567,3.5703,9.4536c1.3603,2.2257,3.0656,4.3858,5.0581,6.4076
		c3.0872,3.1856,7.2267,3.488,7.3269,3.5175c0.1335-0.039,4.1522-0.242,7.3945-3.4979c6.1473-6.121,8.1768-11.17,9.9818-19.7696
		c4.1493-1.6733,5.2661-9.1935,2.1674-12.7628C52.8047,25.8192,54.5812,22.022,54.7195,15.5854z M47.8541,40.3352
		C45.379,53.9207,41.1059,57.359,36.9147,59.6624c-0.884,0.4807-1.9812,0.1467-2.4619-0.8047
		c-0.0237-0.4981-0.8383-0.5077,0.3582-3.6026c0.1632-0.4352-0.1357-0.9161-0.5532-0.9161h-3.6674
		c-0.417,0-0.7164,0.4809-0.5532,0.9161c0.4701,1.2159,0.9876,2.3216,0.3646,3.5899c-0.6008,1.0575-1.6474,1.2638-2.4683,0.8174
		c-7.54-4.1443-8.6117-10.0064-10.8429-19.3414c-3.56,0.6326-5.6314-6.6492-2.9646-10.1203
		c0.854-1.0818,1.8867-1.3404,2.5981-1.1273c-0.5474-3.2415-2.8879-6.3138,0.2009-8.8815
		c3.2271-2.7348,7.8958-0.0363,12.2835,1.0236c3.3018,0.7929,5.1184-0.8431,9.1126-3.4623
		c3.6097-2.3773,8.8902-2.4276,9.3135,1.9067c0.4166,4.2244,0.8026,5.3664,0.8026,9.3635c0.8078-0.1616,2.0474,0.5022,2.7501,1.9268
		l0.0004-0.001C53.1189,34.736,51.0457,40.7576,47.8541,40.3352z"/><path d="M41.4515,49.3208c-0.2756-2.769-5.3855-4.2612-8.4187-4.0327c-0.7424,0.0558-0.4014,1.1162-0.4792,1.7703
		c0,3.5643,6.1456,1.0977,7.2891,3.7541c0.3829,0.889-0.1319,2.8883,1.4059,2.5854C40.4417,52.1853,41.5838,50.6502,41.4515,49.3208
		z"/><path d="M30.5219 49.0638c2.2839-.2779 1.7034-2.9617 1.7729-3.2474 0-.272-.2077-.5079-.4792-.5283-2.1395-.1612-4.325.3122-6.2028 1.3511-4.3214 2.3901-.7297 4.8288-2.0125 6.7587.9411.1856 1.1502-.4996 1.2118-1.4491C24.966 49.528 26.1224 49.6003 30.5219 49.0638zM37.8679 30.933c-.7473.3546-1.447.8326-2.1434 1.3094.9247-.2472 1.8572-.4472 2.7726-.5601-.2418.8284.5619 1.5093 1.4696 1.5093.8916 0 1.6661-.6501 1.4863-1.4486.7247.1461 1.4181.3953 2.0537.8118C42.4202 30.6746 40.3821 29.741 37.8679 30.933zM26.3512 31.6823c.9158.1129 1.8479.3129 2.7731.5601-1.3516-.9248-2.8428-1.9399-4.4995-1.8482-1.2995.0721-2.553.897-3.2832 2.1606.6356-.4165 1.329-.6657 2.0537-.8118C22.974 33.6725 26.9246 33.6463 26.3512 31.6823zM34.3814 43.38c.4817.0318 1.0648.1411 1.5156-.2869 1.573-1.7348-2.9501-3.2723-2.7221-9.9013C31.447 40.0762 39.0976 42.6787 34.3814 43.38z"/><path d="M28.9514 43.0931c.4508.428 1.0344.3187 1.5156.2869-4.6051-.6847 2.9181-3.3689 1.2065-10.1882C31.9008 39.8007 27.3878 41.3686 28.9514 43.0931zM34.25 43.4554c-1.1204.9712-2.5526.9546-3.6516 0C30.9932 44.0317 33.4109 44.6823 34.25 43.4554zM26.7966 29.5957c.8541.1338 1.7274.0993 2.5536-.1541.308-.1074-1.9973-.7152-2.3233-.8225-3.5786-1.1592-4.3278-1.0903-7.0951.8593-.0514.0395-.0009.1143.0529.0852C24.4608 27.3882 24.3645 29.2611 26.7966 29.5957zM37.8214 28.6191c-.9947.3273-2.6592.7222-2.3228.8225 3.6649 1.1245 4.3372-1.5686 7.1157-.783 1.4425.367 2.2257 1.018 2.3144.8896.0162-.0225.0108-.0539-.0122-.0698C42.1463 27.5268 41.4079 27.4573 37.8214 28.6191zM27.0697 50.9372c2.5878 3.1374 7.8737 2.958 10.709 0C33.0737 51.7103 32.4174 52.2659 27.0697 50.9372z"/></svg>